<svg width="332" height="158" viewBox="0 0 332 158" fill="none" xmlns="http://www.w3.org/2000/svg">
<path d="M1 6C1 3.23857 3.23858 1 6 1H326C328.761 1 331 3.23858 331 6V152C331 154.761 328.761 157 326 157H6C3.23857 157 1 154.761 1 152V6Z" fill="url(#paint0_radial_938_158)"/>
<path d="M331 152C331 154.761 328.761 157 326 157L5.99994 157C3.23849 157 0.99994 154.761 0.999941 152L0.999991 5.99999C0.999992 3.23856 3.23855 0.999993 5.99999 0.999993L326 1C328.761 1 331 3.23857 331 6L331 152Z" fill="url(#paint1_radial_938_158)"/>
<path d="M326 157.5C329.038 157.5 331.5 155.038 331.5 152L331.5 6C331.5 2.96243 329.038 0.5 326 0.5L5.99999 0.499993C2.96239 0.499993 0.499992 2.96243 0.499991 5.99999L0.499941 152C0.49994 155.038 2.96234 157.5 5.99994 157.5L326 157.5Z" stroke="#333333" stroke-opacity="0.78"/>
<path d="M331 152C331 154.761 328.761 157 326 157L5.99991 157C3.23849 157 0.99994 154.761 0.999941 152L0.999991 5.99999C0.999992 3.23856 3.23855 0.999993 5.99999 0.999993L326 1C328.761 1 331 3.23857 331 6L331 152Z" fill="url(#paint2_radial_938_158)"/>
<path d="M326 157.5C329.038 157.5 331.5 155.038 331.5 152L331.5 6C331.5 2.96243 329.038 0.5 326 0.5L5.99999 0.499993C2.96239 0.499993 0.499992 2.96243 0.499991 5.99999L0.499941 152C0.49994 155.038 2.96234 157.5 5.99991 157.5L326 157.5Z" stroke="#333333" stroke-opacity="0.78"/>
<defs>
<radialGradient id="paint0_radial_938_158" cx="0" cy="0" r="1" gradientUnits="userSpaceOnUse" gradientTransform="translate(13.6923 27.6416) rotate(2.32294) scale(244.925 93.5786)">
<stop stop-color="#4FEF37" stop-opacity="0.1"/>
<stop offset="0.9492" stop-color="#1A1A1A" stop-opacity="0.05"/>
</radialGradient>
<radialGradient id="paint1_radial_938_158" cx="0" cy="0" r="1" gradientUnits="userSpaceOnUse" gradientTransform="translate(323.067 98.1455) rotate(174.233) scale(228.827 75.3087)">
<stop stop-color="#4FEF37" stop-opacity="0.1"/>
<stop offset="0.9492" stop-color="#1A1A1A" stop-opacity="0.05"/>
</radialGradient>
<radialGradient id="paint2_radial_938_158" cx="0" cy="0" r="1" gradientUnits="userSpaceOnUse" gradientTransform="translate(323.067 98.1455) rotate(174.233) scale(228.827 75.3087)">
<stop stop-color="#4FEF37" stop-opacity="0.1"/>
<stop offset="0.9492" stop-color="#1A1A1A" stop-opacity="0.05"/>
</radialGradient>
</defs>
</svg>
